<svg width="19" height="18" viewBox="0 0 19 18" fill="none" xmlns="http://www.w3.org/2000/svg">
<path d="M11.3646 6.59996H10.8646C10.8646 6.87611 11.0884 7.09996 11.3646 7.09996V6.59996ZM11.3646 3.39998H11.8646H11.3646ZM8.77345 1V0.5C8.58113 0.5 8.40586 0.610304 8.32266 0.783694L8.77345 1ZM5.31863 8.19995L4.86785 7.98365C4.83545 8.05115 4.81863 8.12508 4.81863 8.19995H5.31863ZM5.31863 16.9999H4.81863C4.81863 17.276 5.04249 17.4999 5.31863 17.4999V16.9999ZM15.0612 16.9999L15.0665 16.4999H15.0612V16.9999ZM16.7886 15.6399L16.2953 15.5582L16.2952 15.5591L16.7886 15.6399ZM17.9805 8.43995L18.4738 8.52161L18.474 8.52081L17.9805 8.43995ZM16.2531 6.59996V7.09999L16.2584 7.09994L16.2531 6.59996ZM5.31852 16.9999V17.4999C5.59466 17.4999 5.81852 17.276 5.81852 16.9999H5.31852ZM5.31852 8.19995H5.81852C5.81852 7.92381 5.59466 7.69995 5.31852 7.69995V8.19995ZM11.8646 6.59996V3.39998H10.8646V6.59996H11.8646ZM11.8646 3.39998C11.8646 1.76298 10.4439 0.5 8.77345 0.5V1.5C9.96511 1.5 10.8646 2.38604 10.8646 3.39998L11.8646 3.39998ZM8.32266 0.783694L4.86785 7.98365L5.76942 8.41626L9.22424 1.21631L8.32266 0.783694ZM4.81863 8.19995V16.9999H5.81863V8.19995H4.81863ZM5.31863 17.4999H15.0612V16.4999H5.31863V17.4999ZM15.056 17.4999C16.1356 17.5112 17.1085 16.7805 17.2821 15.7207L16.2952 15.5591C16.2104 16.077 15.7096 16.5067 15.0665 16.4999L15.056 17.4999ZM17.2819 15.7216L18.4738 8.52161L17.4873 8.35829L16.2953 15.5582L17.2819 15.7216ZM18.474 8.52081C18.5761 7.89746 18.3756 7.27092 17.9407 6.80775L17.2117 7.4922C17.442 7.73749 17.5371 8.05422 17.4871 8.3591L18.474 8.52081ZM17.9407 6.80775C17.5079 6.34665 16.8878 6.09328 16.2479 6.09999L16.2584 7.09994C16.6321 7.09602 16.9794 7.24483 17.2117 7.4922L17.9407 6.80775ZM16.2531 6.09996H11.3646V7.09996H16.2531V6.09996ZM5.31852 16.4999H2.72741V17.4999H5.31852V16.4999ZM2.72741 16.4999C2.01276 16.4999 1.5 15.972 1.5 15.3999H0.5C0.5 16.5951 1.53401 17.4999 2.72741 17.4999V16.4999ZM1.5 15.3999V9.79994H0.5V15.3999H1.5ZM1.5 9.79994C1.5 9.22782 2.01276 8.69995 2.72741 8.69995V7.69995C1.53401 7.69995 0.5 8.60476 0.5 9.79994H1.5ZM2.72741 8.69995H5.31852V7.69995H2.72741V8.69995ZM4.81852 8.19995V16.9999H5.81852V8.19995H4.81852Z" fill="#FF6C00"/>
</svg>
